<svg xmlns="http://www.w3.org/2000/svg" viewBox="0 0 1024 1024" width="1024" height="1024"><defs>
    <linearGradient id="bg3" x1="0" y1="0" x2="1" y2="1">
      <stop offset="0%" stop-color="#14273e"/><stop offset="40%" stop-color="#1a3552"/><stop offset="100%" stop-color="#0a1524"/>
    </linearGradient>
    <linearGradient id="metal3" x1="0" y1="0" x2="1" y2="0.5">
      <stop offset="0%" stop-color="#e8ecf2"/><stop offset="50%" stop-color="#c4ccd4"/><stop offset="100%" stop-color="#a8b2bc"/>
    </linearGradient>
    <linearGradient id="handle3" x1="0" y1="0" x2="1" y2="0">
      <stop offset="0%" stop-color="#404850"/><stop offset="50%" stop-color="#5a626a"/><stop offset="100%" stop-color="#303840"/>
    </linearGradient>
    <filter id="shadow3" x="-20%" y="-10%" width="140%" height="130%">
      <feDropShadow dx="0" dy="6" stdDeviation="12" flood-color="#000" flood-opacity="0.5"/>
    </filter>
    <clipPath id="clip3"><rect width="1024" height="1024" rx="180" ry="180"/></clipPath>
  </defs><g clip-path="url(#clip3)"><rect width="1024" height="1024" fill="url(#bg3)"/></g><g filter="url(#shadow3)"><path d="M 172 230 L 852 230 L 600 450 L 424 450 Z" fill="url(#metal3)" stroke="#7a858f" stroke-width="1"/><path d="M 172 230 L 852 230 L 844 244 L 180 244 Z" fill="#f4f6f9"/><path d="M 350.6 344 L 673.4 344 L 673.4 358 L 350.6 358 Z" fill="#505860" opacity="0.5"/><path d="M 484 450 L 540 450 L 540 750 L 484 750 Z" fill="url(#handle3)"/><path d="M 480 750 L 544 750 L 540 764 L 484 764 Z" fill="url(#handle3)"/></g></svg>