<svg xmlns="http://www.w3.org/2000/svg" viewBox="0 0 1024 1024" width="1024" height="1024"><defs>
    <linearGradient id="bg2" x1="0" y1="0" x2="1" y2="1">
      <stop offset="0%" stop-color="#1e3b5c"/>
      <stop offset="100%" stop-color="#0c1928"/>
    </linearGradient>
    <linearGradient id="headMetal2" x1="0" y1="0" x2="1" y2="1">
      <stop offset="0%" stop-color="#f0f3f6"/>
      <stop offset="30%" stop-color="#c8d0d8"/>
      <stop offset="60%" stop-color="#9aa3ae"/>
      <stop offset="100%" stop-color="#d4dbe2"/>
    </linearGradient>
    <linearGradient id="headTop2" x1="0" y1="0" x2="0" y2="1">
      <stop offset="0%" stop-color="#fafbfc"/>
      <stop offset="100%" stop-color="#c0c8d0"/>
    </linearGradient>
    <linearGradient id="handle2" x1="0" y1="0" x2="1" y2="0">
      <stop offset="0%" stop-color="#353b42"/>
      <stop offset="40%" stop-color="#586068"/>
      <stop offset="60%" stop-color="#4a525a"/>
      <stop offset="100%" stop-color="#2a3038"/>
    </linearGradient>
    <filter id="shadow2" x="-20%" y="-10%" width="140%" height="130%">
      <feDropShadow dx="3" dy="8" stdDeviation="16" flood-color="#000" flood-opacity="0.45"/>
    </filter>
    <clipPath id="clip2">
      <rect width="1024" height="1024" rx="180" ry="180"/>
    </clipPath>
  </defs>
  <g clip-path="url(#clip2)">
    <rect width="1024" height="1024" fill="url(#bg2)"/>
    <g stroke="#5a8ab5" stroke-width="0.5" opacity="0.05"><line x1="0" y1="128" x2="1024" y2="128"/>
<line x1="128" y1="0" x2="128" y2="1024"/>
<line x1="0" y1="224" x2="1024" y2="224"/>
<line x1="224" y1="0" x2="224" y2="1024"/>
<line x1="0" y1="320" x2="1024" y2="320"/>
<line x1="320" y1="0" x2="320" y2="1024"/>
<line x1="0" y1="416" x2="1024" y2="416"/>
<line x1="416" y1="0" x2="416" y2="1024"/>
<line x1="0" y1="512" x2="1024" y2="512"/>
<line x1="512" y1="0" x2="512" y2="1024"/>
<line x1="0" y1="608" x2="1024" y2="608"/>
<line x1="608" y1="0" x2="608" y2="1024"/>
<line x1="0" y1="704" x2="1024" y2="704"/>
<line x1="704" y1="0" x2="704" y2="1024"/>
<line x1="0" y1="800" x2="1024" y2="800"/>
<line x1="800" y1="0" x2="800" y2="1024"/>
<line x1="0" y1="896" x2="1024" y2="896"/>
<line x1="896" y1="0" x2="896" y2="1024"/>
</g>
  </g>
  <g filter="url(#shadow2)">
    <path d="M 230 260 L 794 260 L 644 480 L 380 480 Z" fill="url(#headMetal2)" stroke="#6e7882" stroke-width="1.5"/>
    <path d="M 230 260 L 794 260 L 784 280 L 240 280 Z" fill="url(#headTop2)"/>
    <path d="M 782 308 L 798 320 L 782 332 Z" fill="#6e7882" opacity="0.5"/>
    <path d="M 337 382.6 L 687 382.6 L 687 392.6 L 337 392.6 Z" fill="#4a525a" opacity="0.6"/>
    <path d="M 480 480 L 544 480 L 544 730 L 480 730 Z" fill="url(#handle2)" stroke="#1a1e24" stroke-width="1"/>
    <path d="M 474 730 L 550 730 L 544 748 L 480 748 Z" fill="url(#handle2)"/>
  </g></svg>